<svg xmlns="http://www.w3.org/2000/svg" viewBox="0 0 262.52 139.77"><defs><style>.a{fill:#a62223;}.b{fill:#212121;}.c{fill:#242424;}</style></defs><path class="a" d="M150.82,141.31a6.22,6.22,0,0,1-.18-2.06,131.35,131.35,0,0,1,1-19.12c.55-4.52,1.33-9,2.15-13.49.14-.76.36-1,1.21-.92a110.7,110.7,0,0,0,24.68.39c.28,0,.66-.24.83.21,0,.12,0,.24.18.27h0a13.58,13.58,0,0,0,.86,3.61q3.84,13.92,7.71,27.82c.81,2.9,1.62,5.8,2.41,8.71.06.22.48.73-.32.61q-5.84-.92-11.68-1.79l-10.83-1.61-11.26-1.67C155.3,141.93,153.06,141.62,150.82,141.31Z" transform="translate(-21.25 -66.63)"/><path class="a" d="M110.25,144.61c-.33-.29,0-.55.08-.77q7.76-20.94,15.51-41.89a1.23,1.23,0,0,1,1.43-1,65.84,65.84,0,0,1,14.6,2.71,18.16,18.16,0,0,1,2.82.8,85.18,85.18,0,0,0-1,12.55c-.05,4.7.31,9.38.67,14.06.15,2,.31,3.93.6,5.88.12.82-.08,1-.84,1.19-3.25.56-6.5,1.17-9.74,1.78-6.09,1.14-12.18,2.28-18.26,3.46A50.69,50.69,0,0,0,110.25,144.61Z" transform="translate(-21.25 -66.63)"/><path class="a" d="M155.28,99.27a9.09,9.09,0,0,1,.48-3.19,116,116,0,0,0,2.68-18.92c.08-1.94,0-3.89,0-5.83,0-.52,0-.69.64-.56,4,.82,8,1.58,12,2.36,0,0,.08.08.12.12l.17.19v0a1.65,1.65,0,0,0,.11.85q3.45,12.44,6.9,24.88c.45,1.63.45,1.65-1.28,1.67-3.11,0-6.23.06-9.33-.19-2.59-.21-5.18-.56-7.78-.79C158.43,99.7,156.88,99.26,155.28,99.27Z" transform="translate(-21.25 -66.63)"/><path class="a" d="M128.19,95.76q4.19-11.28,8.36-22.57c.59-1.6,1.2-3.19,1.78-4.8.12-.33.24-.53.64-.56,4.37-.38,8.73-.79,13.09-1.18.17,0,.36-.07.47.12a.84.84,0,0,0-.16.57,97.19,97.19,0,0,1-1.47,11c-1.2,6.44-3.13,12.7-4.58,19.08-.13.61-.42.67-.91.58A144.35,144.35,0,0,0,128.19,95.76Z" transform="translate(-21.25 -66.63)"/><path class="b" d="M95,167.58a71.33,71.33,0,0,1-.22,8c-.67,4.52-3.05,7.07-7.58,7.89a19.78,19.78,0,0,1-9.24-.36c-3.68-1.09-5.49-3.75-6.09-7.41a30.58,30.58,0,0,1-.19-4.78c0-3.75,0-7.5,0-11.25,0-.62.15-.78.77-.77q3.23.06,6.45,0c.61,0,.78.15.77.77,0,4.53,0,9.07,0,13.6,0,.23,0,.47,0,.7.09,3,1.66,4.27,4.6,3.8a3,3,0,0,0,2.62-2.66,10,10,0,0,0,.17-1.81c0-4.48,0-9,0-13.43,0-.84.26-1,1-1,2.07.05,4.13.05,6.2,0,.68,0,.8.2.8.83C95,162.18,95,164.65,95,167.58Z" transform="translate(-21.25 -66.63)"/><path class="b" d="M99.57,175.64c1.08,0,2.15,0,3.23,0,.33,0,.58,0,.71.43a2.81,2.81,0,0,0,2.12,1.89,5.41,5.41,0,0,0,3.33-.12,1.56,1.56,0,0,0,1.22-1.34,1.5,1.5,0,0,0-1-1.48,15.28,15.28,0,0,0-3.48-1.09,25,25,0,0,1-5.54-1.77,6.42,6.42,0,0,1-3.86-5.76,6.72,6.72,0,0,1,3.59-6.58,14.45,14.45,0,0,1,8.45-1.49,9.91,9.91,0,0,1,6.66,2.83,8.43,8.43,0,0,1,2.09,4.14c.11.51,0,.65-.55.64-2.13,0-4.25,0-6.37,0-.25,0-.51.08-.63-.29-.45-1.36-1.59-1.66-2.83-1.74a4.43,4.43,0,0,0-1.81.19,1.21,1.21,0,0,0-.39,2.23,4.56,4.56,0,0,0,1.72.82c1.93.53,3.87,1,5.79,1.59a9,9,0,0,1,4.37,2.57c2.78,3.22,1.63,8.76-2.4,10.81a15.06,15.06,0,0,1-13.21.46,7.91,7.91,0,0,1-4.89-5.75c-.26-1.17-.25-1.18.9-1.18Z" transform="translate(-21.25 -66.63)"/><path class="b" d="M59.79,164.59H58.3c-2.94,0-5.87,0-8.81,0-.57,0-.83-.09-.8-.75.05-1.42,0-2.84,0-4.27,0-.51.11-.7.67-.7q9.86,0,19.71,0c.46,0,.59.12.59.58q0,2.31,0,4.62a1.33,1.33,0,0,1-.47,1L58.75,176.53l-.68.8a1.18,1.18,0,0,0,.79.11c3.48,0,7,0,10.46,0,.62,0,.87.1.84.79-.06,1.42,0,2.85,0,4.27,0,.46-.07.66-.6.66q-10.35,0-20.68,0c-.49,0-.65-.14-.64-.64,0-1.54,0-3.08,0-4.62a1.55,1.55,0,0,1,.56-1.12l10.47-11.56Z" transform="translate(-21.25 -66.63)"/><path class="b" d="M217.63,168.17c-2.41,0-4.78,0-7.16,0-.42,0-.44-.25-.51-.55a4,4,0,0,0-5-3.32,3.67,3.67,0,0,0-2.8,2.38,12.06,12.06,0,0,0-.23,8.43c.66,2,2.27,2.84,4.65,2.67a3.68,3.68,0,0,0,3.36-3.15c.16-.76.44-.95,1.18-.93,2,0,4,0,5.93,0,.57,0,.8,0,.68.75-1,6.1-6,9.81-12.39,9.31a16.5,16.5,0,0,1-4.67-.94,10.57,10.57,0,0,1-6.43-6.56,15.21,15.21,0,0,1-.23-9.75,11.7,11.7,0,0,1,12.64-8.24,16.73,16.73,0,0,1,4.43.87C215.16,160.72,217.14,163.86,217.63,168.17Z" transform="translate(-21.25 -66.63)"/><path class="b" d="M279.83,168.17c-1,0-2,0-3.05,0-.57,0-.72-.18-.84-.69a4.11,4.11,0,0,0-6-2.81,4.45,4.45,0,0,0-2.13,3,13.4,13.4,0,0,0-.05,7c.57,2.18,2,3.2,4.37,3.19a3.67,3.67,0,0,0,3.83-3.22c.17-.71.43-.89,1.13-.87,2,0,4,0,6,0,.68,0,.75.2.63.8-1.15,6.13-5.92,9.7-12.34,9.26-3.22-.22-6.17-1.05-8.54-3.38a12.17,12.17,0,0,1-3.46-8.5c-.19-4.22.88-8,4.21-10.87a12.13,12.13,0,0,1,9.1-2.73,13.49,13.49,0,0,1,6.07,1.66c3,1.73,4.36,4.45,4.85,7.75.06.41-.1.48-.47.48C282,168.16,280.93,168.17,279.83,168.17Z" transform="translate(-21.25 -66.63)"/><path class="b" d="M151.48,171c0-3.75,0-7.5,0-11.25,0-.6.08-.84.78-.83,4,.05,8,0,11.95.06a10.73,10.73,0,0,1,6.26,1.82c2.75,2,3.36,4.77,2.93,7.88-.56,4.1-3.39,6.48-7.86,6.87-1.8.15-3.6.14-5.4.12-.57,0-.73.15-.72.72,0,2,0,4,0,6,0,.59-.13.81-.76.8-2.15,0-4.31,0-6.46,0-.63,0-.75-.2-.75-.79C151.5,178.57,151.48,174.76,151.48,171Zm7.94-3.73c0,.72,0,1.44,0,2.17,0,.22-.07.52.29.51,1.5-.06,3,.23,4.49-.2a2.41,2.41,0,0,0,1.69-2.55,2.21,2.21,0,0,0-1.64-2.2,6.72,6.72,0,0,0-2.39-.37c-.77,0-1.76-.32-2.27.13s-.11,1.48-.17,2.25A2.25,2.25,0,0,0,159.42,167.23Z" transform="translate(-21.25 -66.63)"/><path class="b" d="M170.16,183.14c1.79-5,3.53-9.88,5.28-14.76,1.05-2.95,2.12-5.89,3.16-8.84a.82.82,0,0,1,.92-.66c2.27,0,4.54,0,6.8,0,.43,0,.67.08.83.54q4.15,11.67,8.35,23.32c0,.1,0,.21.08.39-2.51,0-5,0-7.44,0a.52.52,0,0,1-.59-.47c-.18-.7-.45-1.38-.61-2.09-.11-.47-.3-.67-.81-.66-2.21,0-4.42,0-6.63,0-.46,0-.69.13-.79.59-.16.71-.4,1.4-.57,2.1-.1.41-.31.53-.73.53C175,183.13,172.65,183.14,170.16,183.14Zm12.67-16.85c-.8,2.86-1.53,5.45-2.27,8-.12.4-.13.59.37.58,1.33,0,2.67,0,4,0,.28,0,.44,0,.33-.39C184.46,171.85,183.68,169.18,182.83,166.29Z" transform="translate(-21.25 -66.63)"/><path class="b" d="M21.25,183.14c.5-1.42,1-2.78,1.46-4.13q3.46-9.66,6.92-19.32a1,1,0,0,1,1.16-.81c2.18.05,4.36,0,6.54,0a.81.81,0,0,1,.94.63q4.06,11.43,8.18,22.83c.25.7.11.82-.58.81-2.16,0-4.31,0-6.46,0-.51,0-.76-.15-.83-.63a.29.29,0,0,0,0-.09c-.29-.81-.21-1.95-.87-2.37s-1.63-.12-2.47-.13c-1.51,0-3,0-4.54,0-.51,0-.78.11-.91.66-.19.84-.26,2-.82,2.39s-1.73.15-2.63.16C24.66,183.15,23,183.14,21.25,183.14Zm12.67-16.83c-.82,2.86-1.56,5.47-2.31,8.08-.12.4,0,.51.41.51,1.3,0,2.61,0,3.91,0,.41,0,.49-.11.37-.5C35.52,171.77,34.75,169.13,33.92,166.31Z" transform="translate(-21.25 -66.63)"/><path class="b" d="M117.26,183.14c1-2.73,1.91-5.38,2.86-8,1.84-5.16,3.71-10.31,5.53-15.47a1,1,0,0,1,1.12-.77c2.21,0,4.42,0,6.63,0a.74.74,0,0,1,.87.6q4.08,11.46,8.22,22.91c.25.69,0,.76-.57.75-2.15,0-4.31,0-6.46,0a.76.76,0,0,1-.88-.68c-.16-.65-.4-1.28-.54-1.93s-.37-.62-.86-.62q-3.27,0-6.54,0c-.49,0-.72.13-.84.64-.2.84-.25,2-.8,2.41s-1.79.14-2.72.15C120.65,183.16,119,183.14,117.26,183.14Zm12.67-16.83c-.81,2.84-1.55,5.45-2.3,8.07-.08.27-.15.52.29.52h4.55C131.62,172,130.81,169.27,129.93,166.31Z" transform="translate(-21.25 -66.63)"/><path class="b" d="M229.66,171c0-3.75,0-7.5,0-11.25,0-.6.08-.84.78-.83q8.64,0,17.28,0c.64,0,.85.14.82.81-.06,1.39-.05,2.79,0,4.18,0,.6-.18.73-.74.73-3.12,0-6.23,0-9.34,0-.63,0-.88.13-.84.81a18.56,18.56,0,0,1,0,2.79c0,.69.22.81.85.81,2.35,0,4.71,0,7.06,0,.61,0,.79.14.77.76-.05,1.42,0,2.84,0,4.27,0,.55-.16.66-.68.66-2.39,0-4.77,0-7.15,0-.72,0-.86.23-.84.88,0,2.3,0,4.59,0,6.89,0,.59-.14.8-.77.79q-3.23-.06-6.45,0c-.62,0-.77-.18-.77-.78C229.67,178.57,229.66,174.77,229.66,171Z" transform="translate(-21.25 -66.63)"/><path class="b" d="M110.25,144.61a50.69,50.69,0,0,1,5.86-1.19c6.08-1.18,12.17-2.32,18.26-3.46,3.24-.61,6.49-1.22,9.74-1.78.76-.14,1-.37.84-1.19-.29-2-.45-3.92-.6-5.88-.36-4.68-.72-9.36-.67-14.06a85.18,85.18,0,0,1,1-12.55l2.46,2.33c.26.24.2.51.17.8a83.32,83.32,0,0,0-.51,13.21c.13,5.22.48,10.43.93,15.64.09,1.07.14,2.14.29,3.2.08.59-.1.8-.67.9-2.85.51-5.7,1-8.56,1.58q-12.5,2.31-25,4.63a1.22,1.22,0,0,1-1.12-.24C111.9,145.89,111.07,145.26,110.25,144.61Z" transform="translate(-21.25 -66.63)"/><path class="c" d="M150.82,141.31c2.24.31,4.48.62,6.71.95l11.26,1.67,10.83,1.61q5.83.89,11.68,1.79c.8.12.38-.39.32-.61-.79-2.91-1.6-5.81-2.41-8.71q-3.86-13.9-7.71-27.82a13.58,13.58,0,0,1-.86-3.61,12.17,12.17,0,0,1,3.27,5c3.56,12.69,7.22,25.36,10.84,38,.07.24.12.49.2.86l-4.79-.69-20.5-3.05L154,144.41a1.27,1.27,0,0,1-.85-.39C152.36,143.11,151.59,142.21,150.82,141.31Z" transform="translate(-21.25 -66.63)"/><path class="c" d="M250.1,171.06c0-3.81,0-7.61,0-11.41,0-.61.14-.78.76-.77,2.18,0,4.36,0,6.53,0,.57,0,.74.14.74.72q0,11.42,0,22.82c0,.58-.16.74-.73.74q-3.27-.06-6.54,0c-.62,0-.76-.18-.76-.78C250.12,178.61,250.1,174.83,250.1,171.06Z" transform="translate(-21.25 -66.63)"/><path class="b" d="M227.27,171.07c0,3.77,0,7.54,0,11.32,0,.62-.17.77-.77.76-2.15,0-4.3,0-6.45,0-.53,0-.77-.07-.77-.7q0-11.44,0-22.91c0-.57.19-.66.7-.65,2.21,0,4.42,0,6.62,0,.56,0,.67.16.67.69C227.26,163.4,227.27,167.23,227.27,171.07Z" transform="translate(-21.25 -66.63)"/><path class="c" d="M128.19,95.76A144.35,144.35,0,0,1,145.41,98c.49.09.78,0,.91-.58,1.45-6.38,3.38-12.64,4.58-19.08a97.19,97.19,0,0,0,1.47-11,.84.84,0,0,1,.16-.57c.78.75,1.53,1.51,2.33,2.22.39.35.25.73.22,1.12a132,132,0,0,1-4.53,23.79c-.56,2.07-1,4.16-1.52,6.24-.11.47-.25.65-.8.55q-6-1.05-12-2a26.65,26.65,0,0,0-5.28-.46c-.17,0-.42,0-.5,0A14.2,14.2,0,0,1,128.19,95.76Z" transform="translate(-21.25 -66.63)"/><path class="c" d="M155.28,99.27c1.6,0,3.15.43,4.74.57,2.6.23,5.19.58,7.78.79,3.1.25,6.22.23,9.33.19,1.73,0,1.73,0,1.28-1.67q-3.47-12.44-6.9-24.88a1.65,1.65,0,0,1-.11-.85,22.31,22.31,0,0,1,2.28,1.72c.23.17.25.45.32.7,2.46,8.84,4.9,17.68,7.38,26.52.18.61.1.79-.54.83a90.6,90.6,0,0,1-17-.51c-1.66-.22-3.33-.49-5-.68a2.52,2.52,0,0,1-1.71-.87C156.53,100.47,155.89,99.88,155.28,99.27Z" transform="translate(-21.25 -66.63)"/><path class="c" d="M169.61,199.53c1.49.74,1.57,2,1.61,3.32,0,1-.27,2,.51,2.83.25.27,0,.37-.32.37-.78,0-1.57,0-2.35,0-.54,0-.56-.37-.59-.67-.09-1-.11-2-.2-3-.11-1.19-.43-1.5-1.63-1.6-1-.09-2.26-.41-3,.1s-.12,1.74-.17,2.66c0,.15,0,.29,0,.44,0,2.33,0,2.32-2.38,2.11-.39,0-.48-.17-.48-.52q0-6.33,0-12.64c0-.38.13-.49.51-.49,2.26,0,4.53-.07,6.79,0a3.82,3.82,0,0,1,3.27,5.55A3.08,3.08,0,0,1,169.61,199.53Zm-4.18-4.79v0c-.4,0-.81,0-1.21,0-.56-.06-.78.12-.74.71.05.81,0,1.63,0,2.44,0,.42.13.56.55.54,1,0,2,0,3-.08a1.55,1.55,0,0,0,1.65-1.71,1.63,1.63,0,0,0-1.65-1.83C166.53,194.77,166,194.77,165.43,194.74Z" transform="translate(-21.25 -66.63)"/><path class="b" d="M75.93,196.75c0,2.9,0,5.71,0,8.53,0,.59-.1.8-.74.79-1.94,0-1.94,0-1.94-1.93,0-3.66,0-7.32,0-11,0-.62.2-.68.77-.76,1.7-.25,2.65.39,3.41,1.94a66.08,66.08,0,0,0,4.22,7.16v-1.33c0-2.35,0-4.71,0-7.06,0-.5.08-.7.65-.7,2,0,2,0,2,1.94,0,3.66,0,7.33,0,11,0,.53-.08.74-.69.74-2.17,0-2.16,0-3.24-1.87q-2-3.44-3.94-6.86C76.31,197.15,76.25,196.9,75.93,196.75Z" transform="translate(-21.25 -66.63)"/><path class="c" d="M190.36,206.38a6.74,6.74,0,0,1-4.44-1.21,4,4,0,0,1-1.5-2.75c-.07-.56.13-.66.6-.62a4,4,0,0,0,.69,0c.81,0,1.62-.18,1.78,1,.06.5.61.82,1.14,1a5.28,5.28,0,0,0,3.17,0,1.49,1.49,0,0,0,1.13-1.48,1.31,1.31,0,0,0-1.1-1.29c-1.09-.31-2.2-.55-3.29-.83-.42-.11-.85-.22-1.26-.35-1.76-.6-2.54-1.54-2.64-3.16a3.87,3.87,0,0,1,2.25-4.06,6.91,6.91,0,0,1,6.29.22,4,4,0,0,1,2.06,3.06c.06.4,0,.62-.46.58a10.65,10.65,0,0,0-1.13,0c-.66,0-1.1,0-1.4-.82-.53-1.48-3.75-1.71-4.68-.42a1.25,1.25,0,0,0,.67,2c1.12.37,2.29.61,3.44.91.42.11.85.21,1.27.34a3.35,3.35,0,0,1,2.71,2.92,4,4,0,0,1-2.11,4.24A6,6,0,0,1,190.36,206.38Z" transform="translate(-21.25 -66.63)"/><path class="c" d="M137.26,199.13c0-2,0-4,0-6,0-.59.18-.72.74-.72q4.23,0,8.46,0c.57,0,.73.14.72.72,0,1.74,0,1.74-1.77,1.74-1.57,0-3.14,0-4.71,0-.46,0-.57.13-.58.58-.06,2.25-.08,2.25,2.14,2.25,1.19,0,2.39,0,3.58,0,.53,0,.77.08.76.7,0,1.72,0,1.72-1.71,1.72-1.4,0-2.8,0-4.19,0-.46,0-.6.13-.58.59.05.93-.29,2.11.16,2.7s1.69.16,2.58.18c1.37,0,2.73,0,4.1,0,.38,0,.55.06.57.51.1,2,.12,2-1.87,2-2.53,0-5.06,0-7.59,0-.69,0-.82-.2-.81-.83C137.28,203.2,137.26,201.17,137.26,199.13Z" transform="translate(-21.25 -66.63)"/><path class="b" d="M48.82,197.45c0-1.45,0-2.9,0-4.35,0-.5.07-.75.65-.69s1.66-.23,2.11.12.14,1.37.15,2.09c0,2.35,0,4.7.08,7a2.06,2.06,0,0,0,2.3,2.26c1.72,0,2.49-.52,2.67-2.17.21-2,0-4.12.08-6.18,0-.41,0-.81,0-1.22,0-.63-.26-1.64.12-1.8a7,7,0,0,1,2.48-.14c.36,0,.3.28.3.5,0,3,.06,6-.07,9-.12,2.71-1.53,4.1-4.22,4.44a8.89,8.89,0,0,1-3.29-.17,4.24,4.24,0,0,1-3.31-4.26c-.07-1.48,0-3,0-4.45Z" transform="translate(-21.25 -66.63)"/><path class="c" d="M112.78,192.49l.18-.06c.93,0,2-.31,2.73.1s.64,1.64.9,2.52c.72,2.44,1.41,4.9,2.13,7.4a1.28,1.28,0,0,0,.31-.67c.84-2.92,1.71-5.84,2.52-8.77.14-.5.36-.64.84-.6a11.5,11.5,0,0,0,1.66,0c.6-.06.67.14.48.67-1.18,3.42-2.34,6.85-3.51,10.28-.09.24-.17.49-.25.74-.7,2.11-.7,2.1-2.93,2a.59.59,0,0,1-.63-.45C115.75,201.25,114.27,196.89,112.78,192.49Z" transform="translate(-21.25 -66.63)"/><path class="c" d="M257.9,192.42c-1.39,2.61-2.68,5.09-4,7.55a3.91,3.91,0,0,0-.55,2.14c.05,1.13,0,2.26,0,3.39,0,.41-.11.54-.53.56-2.36.14-2.46.14-2.33-2.2a8.87,8.87,0,0,0-1.41-5.49c-1.19-1.87-2.18-3.87-3.33-6,1.12,0,2.11,0,3.11,0,.41,0,.45.31.56.55.83,1.72,1.65,3.45,2.53,5.31.82-1.77,1.61-3.41,2.32-5.09a1.06,1.06,0,0,1,1.22-.78C256.23,192.46,257,192.42,257.9,192.42Z" transform="translate(-21.25 -66.63)"/><path class="b" d="M230.38,200.47c0,1.66,0,3.31,0,5,0,.5-.13.63-.62.63-2.26,0-2.26.05-2.26-2.22,0-2.75,0-5.51,0-8.27,0-.56-.14-.76-.72-.72-1,.05-1.92,0-2.88,0-.42,0-.52-.13-.53-.54-.07-1.91-.09-1.91,1.85-1.91,2.85,0,5.69,0,8.54,0,.59,0,.72.18.71.73,0,1.73,0,1.72-1.7,1.73-.77,0-1.8-.25-2.26.14s-.13,1.47-.14,2.25C230.36,198.32,230.38,199.4,230.38,200.47Z" transform="translate(-21.25 -66.63)"/><path class="c" d="M208.24,199.21c0-2,0-4.06,0-6.09,0-.57.16-.72.72-.72,2.2,0,2.2,0,2.2,2.19,0,3.57,0,7.14,0,10.71,0,.6-.15.77-.76.77-2.16,0-2.16,0-2.16-2.16Z" transform="translate(-21.25 -66.63)"/><path class="b" d="M100.37,199.28c0,2,0,4.06,0,6.09,0,.51-.08.75-.66.69s-1.64.29-2.1-.14-.14-1.36-.15-2.08c0-3.57,0-7.14,0-10.71,0-.54.11-.79.71-.72s1.66-.31,2.08.16.12,1.31.12,2C100.37,196.14,100.37,197.71,100.37,199.28Z" transform="translate(-21.25 -66.63)"/><path class="c" d="M180.65,106.59c-.15,0-.16-.15-.18-.27A.27.27,0,0,1,180.65,106.59Z" transform="translate(-21.25 -66.63)"/><path class="c" d="M171.4,73.44l-.17-.19C171.33,73.27,171.42,73.31,171.4,73.44Z" transform="translate(-21.25 -66.63)"/></svg>