<svg xmlns="http://www.w3.org/2000/svg" viewBox="0 0 250.98 287.92"><defs><style>.a{fill:#fff;}</style></defs><path class="a" d="M251,144.13V281.62c0,5.09-1.24,6.33-6.31,6.33H6.16C1.37,288,0,286.63,0,282V4.23A4.38,4.38,0,0,1,4.42,0H244.69c5,0,6.27,1.25,6.27,6.38Q251,75.26,251,144.13ZM9.42,9V279H238.61c3.19,0,3.19,0,3.19-3.31V12.23c0-3.26,0-3.27-3.22-3.27Z" transform="translate(-0.01 -0.03)"/><path class="a" d="M87.51,75.23A36.53,36.53,0,0,1,102.29,88.9c4.53,7.48,5.22,15.68,4.67,24.11-.14,2.15-1.58,3.42-3.76,3.7a16.68,16.68,0,0,1-2,0H43.49c-4.43,0-5.86-1.54-6-6-.3-9.9,1.65-19.16,8.51-26.65,3.16-3.45,7.06-6.21,10.84-9.47a21.51,21.51,0,0,1-5.28-20.35,20.43,20.43,0,0,1,8-12A21.43,21.43,0,0,1,87.07,44C95.81,52.48,96,62.79,87.51,75.23Zm-15.4,32.34H95.82c1.35,0,2.15-.18,2.15-1.86C98,92.29,84.73,80,71.19,81S47.9,91.88,46.75,105.56c-.16,1.9.69,2,2.14,2C56.63,107.55,64.37,107.57,72.11,107.57Zm12.51-48A12.59,12.59,0,0,0,72.39,47.19C65.83,47.13,60,53.11,60,59.72a12.29,12.29,0,0,0,24.58-.18Z" transform="translate(-0.01 -0.03)"/><path class="a" d="M125.49,146h-84a20.85,20.85,0,0,1-2.5,0,4.58,4.58,0,0,1-4-4.62,4.44,4.44,0,0,1,4.2-4.44c.67-.06,1.34,0,2,0H209.86a16.68,16.68,0,0,1,2,0,4.33,4.33,0,0,1,4,4.33,4.44,4.44,0,0,1-3.67,4.66,16.74,16.74,0,0,1-2.74.1Z" transform="translate(-0.01 -0.03)"/><path class="a" d="M152.7,204.77q28.61,0,57.2,0c1.57,0,3.64.33,4.55,1.34a5.61,5.61,0,0,1,1,4.7c-.39,1.26-2.19,2.18-3.52,3-.54.34-1.46.08-2.21.08H94a4.58,4.58,0,0,1-4.62-4.52v-.07a4.39,4.39,0,0,1,4.22-4.57H94c2.25-.09,4.5,0,6.75,0Z" transform="translate(-0.01 -0.03)"/><path class="a" d="M91,247.9H39.26A4.67,4.67,0,0,1,35,243.69a4.37,4.37,0,0,1,3.49-4.79,12.59,12.59,0,0,1,3-.25h100c3.68,0,5.89,1.83,5.82,4.74s-2.24,4.52-5.74,4.52Z" transform="translate(-0.01 -0.03)"/><path class="a" d="M160.21,180H110.75a6,6,0,0,1-3.89-1.14,5.32,5.32,0,0,1-1.53-4.09c.29-1.36,1.75-2.62,3-3.55.67-.51,1.92-.32,2.91-.32h98.68a13.33,13.33,0,0,1,2,.06,4.27,4.27,0,0,1,4,4.36A4.45,4.45,0,0,1,212,180a16.74,16.74,0,0,1-2.24,0Z" transform="translate(-0.01 -0.03)"/><path class="a" d="M171.14,73h39.24c3.54,0,5.62,1.69,5.63,4.54s-2.1,4.6-5.63,4.6H131.9c-3.76,0-5.78-1.71-5.73-4.73,0-2.66,1.94-4.4,5-4.4h40Z" transform="translate(-0.01 -0.03)"/><path class="a" d="M171,43h39.73c3.36,0,5.49,2,5.27,4.89A4.44,4.44,0,0,1,211.76,52c-1.58.11-3.16,0-4.75,0H131.79c-3.29,0-5-1.11-5.49-3.54a4.38,4.38,0,0,1,3.07-5.38,4.57,4.57,0,0,1,1.38-.15c4.92-.08,9.83,0,14.75,0Z" transform="translate(-0.01 -0.03)"/><path class="a" d="M171.26,103h40.48a4.53,4.53,0,0,1,.5,9,13.81,13.81,0,0,1-2.49.11H132.28a13,13,0,0,1-2.49-.12,4.47,4.47,0,0,1-3.61-4.71,4.3,4.3,0,0,1,4.1-4.25c.74-.07,1.5,0,2.25,0Z" transform="translate(-0.01 -0.03)"/><path class="a" d="M67.5,170.84h27c2.61,0,4.37,1.33,4.82,3.5a4.24,4.24,0,0,1-2.27,5,6.49,6.49,0,0,1-2.88.58H40.46c-3.36,0-5.4-1.7-5.46-4.49s2-4.64,5.54-4.65Q54,170.84,67.5,170.84Z" transform="translate(-0.01 -0.03)"/><path class="a" d="M185.14,247.9h-25c-3.46,0-5.6-1.82-5.55-4.68s2.1-4.56,5.45-4.56h50.18c3.35,0,5.2,1.33,5.59,3.84a4.55,4.55,0,0,1-3,5.11,9.1,9.1,0,0,1-2.7.29Z" transform="translate(-0.01 -0.03)"/><path class="a" d="M58.24,204.77H76.48c3.43,0,5.43,1.7,5.47,4.48S79.87,214,76.43,214h-36c-3.32,0-5.41-1.76-5.47-4.52-.07-2.91,1.94-4.65,5.52-4.67C46.41,204.74,52.32,204.76,58.24,204.77Z" transform="translate(-0.01 -0.03)"/></svg>