<svg xmlns="http://www.w3.org/2000/svg" fill="none" id="Harness-Icon--Streamline-Svg-Logos"
    viewBox="0.25 0.33 23.5 23.35">
    <desc> Harness Icon Streamline Icon: https://streamlinehq.com </desc>
    <path fill="#00ade5"
        d="M20.2422 12.44205c-0.143675 0.44105 -0.376475 0.848275 -0.68415 1.196575l-1.756475 1.746725L14.404975 12.00775l3.3966 -3.37755 1.756475 1.712875c0.307725 0.245175 0.53655 0.5746 0.6581 0.9476 0.1216 0.373025 0.13065 0.773275 0.02605 1.151375ZM11.508175 20.20565c-0.43295 -0.148425 -0.8309 -0.383225 -1.169375 -0.690025l-1.751625 -1.741875 3.396525 -3.37755L15.3803 17.77375l-1.7614 1.751525c-0.2465 0.306 -0.5778 0.533525 -0.952875 0.654425 -0.375125 0.1209 -0.77765 0.1299 -1.15785 0.02595Zm-7.81205 -8.68525c0.14595 -0.442125 0.38215 -0.8495 0.693875 -1.196575l1.756475 -1.741925L9.543075 11.9595 6.146475 15.3371l-1.761325 -1.7515c-0.308025 -0.246175 -0.53725 -0.57625 -0.6596 -0.949875 -0.122375 -0.3736 -0.132575 -0.774575 -0.029425 -1.1539v0.038575Zm8.734025 -7.802175c0.446725 0.143575 0.8583 0.378625 1.208175 0.689975l1.751675 1.741875 -3.396575 3.3776 -3.39655 -3.3776 1.741925 -1.70325c0.24655 -0.30605 0.577875 -0.5335 0.952925 -0.654475 0.375125 -0.1209 0.7776 -0.12985 1.1578 -0.0259l-0.019375 -0.048225Zm9.554025 4.23645L16.035325 2.0583725c-0.696675 -0.6476275 -1.523575 -1.1410075 -2.426125 -1.447505C11.585825 -0.05985 9.577 0.4612625 7.946675 2.0583725L1.99301 7.954675c-0.65108 0.69295 -1.14716 1.515225 -1.455705 2.412525 -0.67444125 2.0121 -0.150415 4.0145 1.455705 5.635775l5.919715 5.91075c0.6936 0.658525 1.520775 1.16195 2.426075 1.4765 0.551975 0.185425 1.130275 0.2815 1.712825 0.284625 0.74355 -0.014925 1.476425 -0.178625 2.154975 -0.481175 0.678525 -0.302575 1.28895 -0.7379 1.794775 -1.27995l5.9828 -5.8915c0.659975 -0.6905 1.164525 -1.512925 1.479925 -2.412525 0.67445 -2.0121 0.14555 -4.014475 -1.479925 -5.6309"
        stroke-width="0.25"></path>
</svg>